HIERARCHY
ROOT Pelvis
{
	OFFSET 0.000000 0.000000 0.000000
	CHANNELS 6 Xposition Yposition Zposition Xrotation Yrotation Zrotation
	JOINT LeftUpLeg_virtual
	{
		OFFSET 0.000000 0.000000 0.000000
		CHANNELS 3 Xrotation Yrotation Zrotation
		JOINT LeftUpLeg
		{
			OFFSET 18.735201 -5.666702 -4.541200
			CHANNELS 3 Xrotation Yrotation Zrotation
			JOINT LeftLeg
			{
				OFFSET -0.021200 -31.938179 0.493100
				CHANNELS 3 Xrotation Yrotation Zrotation
				JOINT LeftFoot
				{
					OFFSET 0.021200 -31.938179 -4.336299
					CHANNELS 3 Xrotation Yrotation Zrotation
					JOINT LeftToeBase
					{
						OFFSET 0.943001 -26.722000 15.023500
						CHANNELS 3 Xrotation Yrotation Zrotation
						End Site
						{
							OFFSET 0 0 0
						}
					}
				}
			}
		}
	}
	JOINT RightUpLeg_virtual
	{
		OFFSET 0.000000 0.000000 0.000000
		CHANNELS 3 Xrotation Yrotation Zrotation
		JOINT RightUpLeg
		{
			OFFSET -18.735201 -5.666702 -4.541200
			CHANNELS 3 Xrotation Yrotation Zrotation
			JOINT RightLeg
			{
				OFFSET 0.018946 -31.938133 0.493100
				CHANNELS 3 Xrotation Yrotation Zrotation
				JOINT RightFoot
				{
					OFFSET -0.018946 -31.938126 -4.336299
					CHANNELS 3 Xrotation Yrotation Zrotation
					JOINT RightToeBase
					{
						OFFSET -0.943001 -26.722004 15.023500
						CHANNELS 3 Xrotation Yrotation Zrotation
						End Site
						{
							OFFSET 0 0 0
						}
					}
				}
			}
		}
	}
	JOINT Hips_virtual
	{
		OFFSET 0.000000 0.000000 0.000000
		CHANNELS 3 Xrotation Yrotation Zrotation
		JOINT Hips
		{
			OFFSET -0.000000 -0.000000 -0.000000
			CHANNELS 3 Xrotation Yrotation Zrotation
			JOINT Spine
			{
				OFFSET 0.000000 10.199997 -0.299500
				CHANNELS 3 Xrotation Yrotation Zrotation
				JOINT Spine1
				{
					OFFSET 0.000000 11.900002 -1.516600
					CHANNELS 3 Xrotation Yrotation Zrotation
					JOINT Spine2
					{
						OFFSET 0.000000 13.600006 -2.842500
						CHANNELS 3 Xrotation Yrotation Zrotation
						JOINT Neck_virtual
						{
							OFFSET 0.000000 0.000000 0.000000
							CHANNELS 3 Xrotation Yrotation Zrotation
							JOINT Neck
							{
								OFFSET 0.000000 9.624100 -2.890100
								CHANNELS 3 Xrotation Yrotation Zrotation
								JOINT Head
								{
									OFFSET 0.000000 14.068802 -1.351900
									CHANNELS 3 Xrotation Yrotation Zrotation
									End Site
									{
										OFFSET 0 0 0
									}
								}
							}
						}
						JOINT LeftShoulder_virtual
						{
							OFFSET 0.000000 0.000000 0.000000
							CHANNELS 3 Xrotation Yrotation Zrotation
							JOINT LeftShoulder
							{
								OFFSET 15.263000 10.923401 -0.547700
								CHANNELS 3 Xrotation Yrotation Zrotation
								JOINT LeftArm
								{
									OFFSET 25.438599 -2.830597 -13.032500
									CHANNELS 3 Xrotation Yrotation Zrotation
									JOINT LeftForeArm
									{
										OFFSET 29.960503 0.000000 0.000000
										CHANNELS 3 Xrotation Yrotation Zrotation
										JOINT LeftHand
										{
											OFFSET 27.849251 0.000000 0.000000
											CHANNELS 3 Xrotation Yrotation Zrotation
											End Site
											{
												OFFSET 0 0 0
											}
										}
									}
								}
							}
						}
						JOINT RightShoulder_virtual
						{
							OFFSET 0.000000 0.000000 0.000000
							CHANNELS 3 Xrotation Yrotation Zrotation
							JOINT RightShoulder
							{
								OFFSET -15.263000 10.923401 -0.547700
								CHANNELS 3 Xrotation Yrotation Zrotation
								JOINT RightArm
								{
									OFFSET -25.438599 -2.830597 -13.032500
									CHANNELS 3 Xrotation Yrotation Zrotation
									JOINT RightForeArm
									{
										OFFSET -29.960503 0.000000 0.000000
										CHANNELS 3 Xrotation Yrotation Zrotation
										JOINT RightHand
										{
											OFFSET -27.849251 0.000000 0.000000
											CHANNELS 3 Xrotation Yrotation Zrotation
											End Site
											{
												OFFSET 0 0 0
											}
										}
									}
								}
							}
						}
					}
				}
			}
		}
	}
}
MOTION
Frames: 13
Frame Time: 0.03333333
10.477305 191.008392 69.612610 0.000000 0.000000 0.000000 7.983689 18.741879 -0.257045 -40.804124 17.090592 16.050000 63.210546 -9.490268 -0.751748 4.797909 0.418133 -18.260432 0.000000 0.000000 0.000000 7.983689 18.741879 -0.257045 -59.259814 6.233701 -22.357082 20.883075 9.673962 0.968898 18.266036 17.616226 29.475391 0.000000 0.000000 0.000000 7.983689 18.741879 -0.257045 0.000000 0.000001 0.000000 7.191158 -2.405100 -4.969241 14.380982 -3.151453 1.159758 0.000000 0.000000 0.000000 14.371302 -3.129674 1.438657 -1.398922 0.279904 -3.199636 0.000000 0.000000 0.000000 14.371302 -3.129674 1.438657 -1.997467 13.240470 7.601032 -111.037313 -54.183652 -122.479171 179.999500 -86.713117 179.999472 0.000000 0.000000 0.000000 14.371302 -3.129674 1.438657 1.996414 14.431537 1.991248 -35.368581 39.909724 63.868477 -0.000009 50.063634 0.000020 0.000000 0.000000 0.000000 
10.743460 186.059326 74.790039 0.000000 0.000000 0.000000 6.082128 18.807204 0.683155 -40.305090 17.745953 15.381147 61.500184 -6.969672 -0.630447 8.234584 -0.521577 -17.740609 0.000000 0.000000 0.000000 6.082128 18.807204 0.683155 -55.921412 5.716926 -22.675048 20.219484 8.971232 1.065682 21.510859 20.512708 28.458793 0.000000 0.000000 0.000000 6.082128 18.807204 0.683155 0.000000 0.000002 0.000000 7.295207 -2.193498 -5.033659 14.411475 -2.597693 1.282298 0.000000 0.000000 0.000000 14.393225 -2.607809 1.534273 -1.383491 0.206508 -3.193054 0.000000 0.000000 0.000000 14.393225 -2.607809 1.534273 -1.645773 11.892281 6.117612 -105.464411 -55.286652 -116.659057 -179.999008 -87.101188 -179.998967 0.000000 0.000000 0.000000 14.393225 -2.607809 1.534273 2.075059 14.947594 1.840486 -36.947300 40.337571 63.095034 -0.000013 48.043824 0.000018 0.000000 0.000000 0.000000 
11.045309 180.113358 79.924133 0.000000 0.000000 0.000000 3.929929 18.254903 1.627599 -38.569730 17.805878 14.721749 58.754018 -5.792138 -0.553116 10.725281 -1.231584 -17.997128 0.000000 0.000000 0.000000 3.929929 18.254903 1.627599 -52.400593 4.596856 -22.334669 20.430855 8.327451 1.123187 24.348742 21.718883 26.052298 0.000000 0.000000 0.000000 3.929929 18.254903 1.627599 0.000000 -0.000001 0.000000 7.368138 -1.857263 -5.047232 14.331760 -2.196023 1.072489 0.000000 0.000000 0.000000 14.312124 -2.231722 1.291072 -1.262367 0.125273 -2.999952 0.000000 0.000000 0.000000 14.312124 -2.231722 1.291072 -1.447310 10.959917 5.211209 -99.827709 -56.207208 -110.766728 179.996686 -89.304232 179.996877 0.000000 0.000000 0.000000 14.312124 -2.231722 1.291072 2.080138 14.739085 2.062843 -38.227828 39.650980 63.883702 -0.000011 49.554382 0.000010 0.000000 0.000000 0.000000 
11.384622 173.230728 84.983376 0.000000 0.000000 0.000000 1.833455 17.375299 2.339825 -36.056131 17.472280 14.035502 54.737276 -5.713808 -0.515885 12.295357 -1.747008 -19.337282 0.000000 0.000000 0.000000 1.833455 17.375299 2.339825 -48.716136 2.983790 -21.642339 21.322947 7.951424 1.121972 26.567158 20.824975 23.191523 0.000000 0.000000 0.000000 1.833455 17.375299 2.339825 0.000000 -0.000002 0.000000 7.368452 -1.459960 -4.887814 14.146505 -1.862272 0.698899 0.000000 0.000000 0.000000 14.127817 -1.903763 0.895224 -1.134695 0.059124 -2.744759 0.000000 0.000000 0.000000 14.127817 -1.903763 0.895224 -1.424544 10.926359 4.985064 -95.634909 -56.829390 -106.432973 -0.000448 -87.376616 -0.000466 0.000000 0.000000 0.000000 14.127817 -1.903763 0.895224 2.043275 14.224847 2.274363 -38.443044 37.741365 65.784380 -0.000011 54.704990 0.000014 0.000000 0.000000 0.000000 
11.700715 165.482605 90.012405 0.000000 0.000000 0.000000 0.027547 16.468402 2.615628 -33.442280 16.879059 13.338506 49.741840 -4.737861 -0.433217 13.787367 -2.226452 -20.208025 0.000000 0.000000 0.000000 0.027547 16.468402 2.615628 -44.737978 0.989359 -20.593900 21.876228 7.631486 1.063319 28.616496 18.655960 20.340522 0.000000 0.000000 0.000000 0.027547 16.468402 2.615628 0.000000 0.000000 0.000000 7.253759 -1.063099 -4.567714 13.838703 -1.453595 0.373009 0.000000 0.000000 0.000000 13.820566 -1.493285 0.559342 -1.051185 0.017763 -2.564643 0.000000 0.000000 0.000000 13.820566 -1.493285 0.559342 -1.521665 11.395744 5.359830 -93.134602 -57.010141 -103.986379 -0.000159 -83.810239 -0.000158 0.000000 0.000000 0.000000 13.820566 -1.493285 0.559342 1.981494 13.730242 2.140658 -37.170412 35.541982 67.869349 -0.000028 61.773098 0.000029 0.000000 0.000000 0.000000 
11.953569 156.818237 95.079742 0.000000 0.000000 0.000000 -1.359330 15.603434 2.432910 -31.181504 16.043875 12.976316 44.450236 -2.502484 -0.299495 15.218992 -2.654648 -20.394371 0.000000 0.000000 0.000000 -1.359330 15.603434 2.432910 -40.803335 -1.021319 -19.104582 21.881443 7.275555 0.980025 30.630335 16.260341 17.571386 0.000000 0.000000 0.000000 -1.359330 15.603434 2.432910 0.000000 -0.000001 0.000000 6.987141 -0.696386 -4.268979 13.374520 -0.877308 0.075725 0.000000 0.000000 0.000000 13.366326 -0.930905 0.246418 -0.958220 0.003081 -2.504889 0.000000 0.000000 0.000000 13.366326 -0.930905 0.246418 -1.680123 11.810071 6.240788 -91.771112 -56.444253 -103.034524 -0.000063 -80.511811 -0.000062 0.000000 0.000000 0.000000 13.366326 -0.930905 0.246418 1.909157 13.361173 1.694165 -34.908373 33.814853 69.625412 -0.000087 68.177425 0.000083 0.000000 0.000000 0.000000 
12.220440 147.111160 100.177620 0.000000 0.000000 0.000000 -2.462445 14.907376 2.260641 -29.030537 15.072619 12.899001 39.078463 -0.418716 -0.181016 15.964355 -2.952048 -21.606731 0.000000 0.000000 0.000000 -2.462445 14.907376 2.260641 -37.245489 -2.849422 -17.915803 21.950046 6.983683 0.910091 31.863635 14.213000 15.177766 0.000000 0.000000 0.000000 -2.462445 14.907376 2.260641 0.000000 0.000001 0.000000 6.515871 -0.342039 -4.064346 12.671578 -0.162941 -0.350842 0.000000 0.000000 0.000000 12.690819 -0.245568 -0.218220 -0.711670 0.010186 -2.531767 0.000000 0.000000 0.000000 12.690819 -0.245568 -0.218220 -1.863022 11.904598 7.609679 -90.462331 -55.103825 -102.874288 -0.000038 -77.736562 -0.000020 0.000000 0.000000 0.000000 12.690819 -0.245568 -0.218220 1.838848 13.040754 1.178475 -32.579835 32.339399 71.262014 -0.000020 71.709179 0.000019 0.000000 0.000000 0.000000 
12.596559 136.159409 105.265289 0.000000 0.000000 0.000000 -3.590977 14.534304 2.680254 -26.259246 14.134335 12.584910 32.661203 0.676339 -0.107476 16.790739 -3.357052 -25.105450 0.000000 0.000000 0.000000 -3.590977 14.534304 2.680254 -33.789670 -4.711972 -18.034044 21.589898 6.909048 0.862571 32.738381 12.789095 14.062227 0.000000 0.000000 0.000000 -3.590977 14.534304 2.680254 0.000000 0.000001 0.000000 5.852049 0.015442 -3.675656 11.668154 0.535779 -0.771599 0.000000 0.000000 0.000000 11.708301 0.454781 -0.684540 -0.206768 0.024706 -2.609048 0.000000 0.000000 0.000000 11.708301 0.454781 -0.684540 -2.010418 11.581980 9.365333 -87.662773 -53.597095 -102.330229 0.000053 -76.215492 0.000057 0.000000 0.000000 0.000000 11.708301 0.454781 -0.684540 1.763217 12.666862 0.726231 -30.987305 30.467199 73.369544 -0.000067 71.171684 0.000072 0.000000 0.000000 0.000000 
12.894157 123.645203 110.415230 0.000000 0.000000 0.000000 -4.566657 14.305823 3.051420 -24.676934 13.185044 12.763487 26.411375 0.687424 -0.111647 19.315048 -4.279887 -28.848612 0.000000 0.000000 0.000000 -4.566657 14.305823 3.051420 -30.573347 -6.171071 -18.992798 20.065585 7.367450 0.821993 34.509042 12.681198 17.222266 0.000000 0.000000 0.000000 -4.566657 14.305823 3.051420 0.000000 0.000002 0.000000 5.257526 0.308830 -2.750067 10.546647 1.043380 -0.536254 0.000000 0.000000 0.000000 10.547613 1.040727 -0.452936 0.448968 0.036773 -2.743735 0.000000 0.000000 0.000000 10.547613 1.040727 -0.452936 -1.998102 10.831842 10.937454 -82.283398 -52.696590 -99.959600 -0.000004 -77.285489 -0.000031 0.000000 0.000000 0.000000 10.547613 1.040727 -0.452936 1.682799 12.323680 0.328369 -30.878411 28.164188 76.008674 0.000014 66.162499 -0.000013 0.000000 0.000000 0.000000 
12.747396 109.731407 115.639526 0.000000 0.000000 0.000000 -4.519906 13.907344 0.848151 -30.948263 11.581836 16.737042 28.626204 -2.451627 -0.279611 22.114180 -5.254056 -29.545544 0.000000 0.000000 0.000000 -4.519906 13.907344 0.848151 -29.860740 -5.770292 -17.403901 21.538817 8.642542 0.779685 35.378577 12.655447 24.699711 0.000000 0.000000 0.000000 -4.519906 13.907344 0.848151 0.000000 0.000000 0.000000 5.281577 0.433825 -1.359275 9.930251 1.425292 1.021293 0.000000 0.000000 0.000000 9.826571 1.514176 1.173291 0.884331 0.061744 -2.962381 0.000000 0.000000 0.000000 9.826571 1.514176 1.173291 -1.786917 10.009571 11.216544 -75.854401 -51.958260 -95.431915 0.000230 -81.384976 0.000239 0.000000 0.000000 0.000000 9.826571 1.514176 1.173291 1.661047 12.344218 0.028111 -33.387372 26.198449 78.020745 -0.000002 56.562839 0.000001 0.000000 0.000000 0.000000 
12.074321 95.642441 120.635231 0.000000 0.000000 0.000000 -3.157329 13.575398 -5.551564 -48.291913 6.602205 25.110374 44.619327 -10.308783 -0.570150 22.998558 -4.895556 -23.900819 0.000000 0.000000 0.000000 -3.157329 13.575398 -5.551564 -35.143827 -3.681539 -11.051584 33.421734 9.623119 0.686239 31.061675 10.704990 32.566526 0.000000 0.000000 0.000000 -3.157329 13.575398 -5.551564 0.000000 0.000001 0.000000 6.396440 0.361809 0.016630 10.681441 2.237577 3.714486 0.000000 0.000000 0.000000 10.543378 2.210513 3.952618 0.661641 0.122490 -3.247075 0.000000 0.000000 0.000000 10.543378 2.210513 3.952618 -1.558326 9.814686 9.301851 -73.988133 -49.476845 -91.338965 0.000106 -86.252783 0.000105 0.000000 0.000000 0.000000 10.543378 2.210513 3.952618 1.805682 13.068841 -0.069771 -39.786839 25.544911 77.498011 -0.000030 42.730169 0.000035 0.000000 0.000000 0.000000 
11.572948 83.614372 124.516220 0.000000 0.000000 0.000000 -1.027995 14.177455 -14.834102 -70.823591 -3.147749 29.846257 73.858565 -10.132732 -0.725796 11.306415 -9.644669 -0.057394 0.000000 0.000000 0.000000 -1.027995 14.177455 -14.834102 -46.392564 -6.011167 -1.533518 53.281346 10.341819 0.598792 24.097309 5.107849 29.857711 0.000000 0.000000 0.000000 -1.027995 14.177455 -14.834102 0.000000 0.000000 0.000001 8.453302 0.314771 1.086356 13.174118 4.255080 6.355278 0.000000 0.000000 0.000000 13.292939 3.690828 6.580855 -0.365761 0.195994 -3.501111 0.000000 0.000000 0.000000 13.292939 3.690828 6.580855 -1.416575 10.551760 5.569878 -80.969065 -44.036931 -89.468067 -0.000984 -87.498603 -0.000919 0.000000 0.000000 0.000000 13.292939 3.690828 6.580855 2.148775 14.483298 -0.006098 -50.299965 27.174664 73.510416 0.000008 26.426647 -0.000008 0.000000 0.000000 0.000000 
10.546196 74.302116 126.371719 0.000000 0.000000 0.000000 2.270755 16.026139 -21.971687 -88.479042 -13.539630 29.674764 94.548191 -8.627765 -0.835211 -0.562380 -16.784179 10.118693 0.000000 0.000000 0.000000 2.270755 16.026139 -21.971687 -60.554176 -16.405884 3.827223 77.287839 4.562188 0.282981 11.900913 1.230897 10.651198 0.000000 0.000000 0.000000 2.270755 16.026139 -21.971687 0.000000 -0.000002 0.000001 10.709081 0.280925 1.515413 16.757668 7.600074 7.734392 0.000000 0.000000 0.000000 17.473630 6.158153 7.807862 -1.874111 0.202950 -3.596502 0.000000 0.000000 0.000000 17.473630 6.158153 7.807862 -1.256178 11.482400 1.760272 -92.278779 -37.533590 -85.545934 0.000064 -81.865568 0.000048 0.000000 0.000000 0.000000 17.473630 6.158153 7.807862 2.585310 16.172978 -0.010908 -63.475509 31.131435 67.333494 -0.000008 11.019038 0.000005 0.000000 0.000000 0.000000 
